<svg id="Capa_1" enable-background="new 0 0 512 512" height="512" viewBox="0 0 512 512" width="512" xmlns="http://www.w3.org/2000/svg"><g><g><path d="m107.296 355.516c-11.181 0-19.556 5.002-25.321 11.463-.097.097-.186.199-.274.304-5.782-6.607-14.245-11.767-25.598-11.767-20.227 0-35.916 16.72-35.916 38.187 0 41.94 61.514 71.213 61.514 71.213l.274-.008s61.237-29.266 61.237-71.205c0-21.467-15.689-38.187-35.916-38.187z" fill="#ffbecb"/><g><g><g><path d="m484.246 270.247h-456.493c-9.394 0-17.009-7.615-17.009-17.009v-178.866c0-9.394 7.615-17.009 17.009-17.009h456.493c9.394 0 17.009 7.615 17.009 17.009v178.866c0 9.394-7.615 17.009-17.009 17.009z" fill="#e38eba"/></g></g><path d="m312.626 337.774-51.911-.191v-9.672-78.209c0-11.248-9.144-20.365-20.424-20.365-11.28 0-20.424 9.118-20.424 20.365v77.069 33.305c-.004-15.736-12.814-28.491-28.614-28.491-6.757 0-12.235 5.461-12.235 12.198 0 0 .002 68.459.006 74.999.014 25.864 17.841 48.314 43.025 54.206 11.832 2.768 21.48 6.056 21.48 9.42v19.592h55.139v-19.287c0-1.188 10.835-4.53 23.624-8.063 24.15-6.67 40.887-28.632 40.887-53.685v-32.453c-.002-27.949-22.605-50.635-50.553-50.738z" fill="#ffdcd5"/></g><path d="m430.892 10c-9.122 0-15.955 4.081-20.659 9.352-.079.079-.151.162-.223.248-4.717-5.39-11.622-9.6-20.885-9.6-16.503 0-29.302 13.642-29.302 31.155 0 34.217 50.187 58.101 50.187 58.101l.223-.007s49.961-23.877 49.961-58.094c0-17.513-12.799-31.155-29.302-31.155z" fill="#faf7f5"/></g><g><path d="m107.296 345.516c-9.507 0-18.206 2.823-25.594 8.242-7.389-5.42-16.084-8.242-25.6-8.242-25.747 0-45.915 21.166-45.915 48.187 0 47.707 64.472 78.937 67.217 80.243 1.344.639 2.812.97 4.297.97.101 0 .202-.001.304-.004l.273-.008c1.389-.042 2.754-.374 4.008-.973 2.733-1.306 66.926-32.532 66.926-80.228 0-27.021-20.169-48.187-45.916-48.187zm-25.476 108.24c-17.552-9.433-51.633-33.277-51.633-60.054 0-16.069 11.141-28.187 25.915-28.187 7.142 0 13.223 2.811 18.073 8.353 1.927 2.201 4.738 3.446 7.647 3.413 2.868-.035 5.581-1.3 7.451-3.468.055-.059.109-.118.162-.177 4.809-5.389 10.818-8.121 17.86-8.121 14.774 0 25.916 12.118 25.916 28.187.001 26.789-33.93 50.63-51.391 60.054z"/><path d="m484.246 47.363h-14.481c.281-2.029.429-4.099.429-6.208 0-23.077-17.263-41.155-39.302-41.155-7.701 0-14.782 2.157-20.881 6.308-6.099-4.152-13.178-6.308-20.886-6.308-22.039 0-39.303 18.078-39.303 41.155 0 2.109.149 4.179.431 6.208h-49.047c-5.522 0-10 4.477-10 10s4.478 10 10 10h56.394c14.949 24.874 46.377 40.097 48.113 40.923 1.344.639 2.812.97 4.297.97.102 0 .204-.001.306-.005l.224-.007c1.389-.043 2.753-.374 4.006-.973 1.728-.826 33.015-16.045 47.901-40.909h21.8c3.864 0 7.009 3.144 7.009 7.009v178.866c0 3.865-3.145 7.009-7.009 7.009h-213.533v-10.545c0-16.744-13.648-30.366-30.424-30.366s-30.425 13.622-30.425 30.366v10.545h-182.111c-3.864 0-7.009-3.144-7.009-7.009v-178.865c0-3.865 3.145-7.009 7.009-7.009h183.04c5.523 0 10-4.477 10-10s-4.477-10-10-10h-183.04c-14.893 0-27.009 12.116-27.009 27.009v178.866c0 14.893 12.116 27.009 27.009 27.009h182.111v46.114c-5.523-3.043-11.87-4.776-18.614-4.776-12.261 0-22.235 9.958-22.235 22.199 0 0 .003 68.462.006 75.004.018 30.659 20.886 56.951 50.748 63.937 7.459 1.745 11.568 3.134 13.758 4.032v15.243c0 5.523 4.478 10 10 10h55.139c5.523 0 10-4.477 10-10v-12.896c3.017-.999 8.026-2.533 16.287-4.815 28.394-7.841 48.224-33.881 48.224-63.324v-32.453c0-33.368-27.146-60.615-60.514-60.738l-41.949-.154v-47.372h213.532c14.893 0 27.009-12.116 27.009-27.009v-178.867c-.001-14.892-12.117-27.009-27.01-27.009zm-74.151 40.699c-14.214-7.773-40.272-26.288-40.272-46.906 0-12.061 8.299-21.155 19.303-21.155 5.272 0 9.768 2.081 13.359 6.186 1.899 2.171 4.643 3.415 7.525 3.415h.099c2.861-.028 5.571-1.281 7.446-3.436.047-.051.094-.103.141-.154 3.558-3.988 7.998-6.01 13.196-6.01 11.004 0 19.303 9.095 19.303 21.155-.001 20.537-25.963 39.105-40.1 46.905zm-97.506 259.712c22.38.083 40.588 18.357 40.588 40.738v32.453c0 20.478-13.795 38.591-33.548 44.046-7.262 2.006-13.012 3.707-17.089 5.057-6.503 2.152-13.874 4.592-13.874 12.646v9.286h-35.139v-9.592c0-11.383-13.813-15.557-29.203-19.157-20.773-4.859-35.291-23.148-35.303-44.473-.003-6.54-.006-74.995-.006-74.995 0-1.212 1.003-2.198 2.235-2.198 10.262 0 18.611 8.296 18.614 18.494v38.981c0 5.523 4.478 10 10 10s10-4.477 10-10v-149.358c0-5.716 4.677-10.366 10.425-10.366s10.424 4.65 10.424 10.366v87.881c0 5.508 4.455 9.979 9.963 10z"/><path d="m291.563 204.597c1.172.446 2.374.658 3.558.658 4.029 0 7.827-2.454 9.347-6.444l3.429-9.002h24.139l3.387 8.974c1.95 5.167 7.721 7.774 12.887 5.825 5.168-1.95 7.775-7.72 5.825-12.887l-23.401-62.01c-.034-.093-.071-.185-.108-.277-1.77-4.299-5.916-7.075-10.565-7.075h-.014c-4.654.005-8.8 2.793-10.562 7.101-.03.075-.06.15-.089.226l-23.616 62.007c-1.969 5.161.621 10.938 5.783 12.904zm32.924-34.788h-8.974l4.508-11.835z"/><path d="m216.855 122.929c-4.179 1.302-7.024 5.17-7.024 9.547v62.776c0 5.523 4.478 10 10 10s10-4.477 10-10v-30.697l24.221 35.074c2.855 4.121 7.645 5.865 12.213 4.439 4.641-1.45 7.639-5.742 7.639-11.031l-.588-60.774c-.054-5.49-4.52-9.903-9.998-9.903-.032 0-.066 0-.099 0-5.522.053-9.956 4.574-9.903 10.096l.304 31.351-25.56-37.012c-2.488-3.602-7.029-5.168-11.205-3.866z"/><path d="m451.268 142.933c5.522 0 10-4.477 10-10s-4.478-10-10-10h-26.26c-5.522 0-10 4.477-10 10v62.319c0 5.523 4.478 10 10 10h26.26c5.522 0 10-4.477 10-10s-4.478-10-10-10h-16.26v-11.16h14.323c5.522 0 10-4.477 10-10s-4.478-10-10-10h-14.323v-11.16h16.26z"/><path d="m60.856 205.252h.038c.522-.002 12.864-.05 17.805-.136 19.682-.344 33.967-17.327 33.967-40.381 0-24.234-13.924-40.516-34.647-40.516h-17.287c-2.655 0-5.202 1.056-7.078 2.936s-2.927 4.428-2.922 7.084c0 .001.045 23.472.045 30.43 0 8.487.079 30.62.079 30.62.01 2.653 1.072 5.193 2.955 7.061 1.874 1.859 4.407 2.902 7.045 2.902zm17.163-61.033c13.591 0 14.647 15.703 14.647 20.516 0 10.021-4.427 20.211-14.316 20.384-1.781.031-4.635.057-7.526.078-.021-6.977-.046-15.841-.046-20.529 0-3.94-.015-13.173-.027-20.449z"/><path d="m380.474 205.252c5.522 0 10-4.477 10-10v-52.894h7.437c5.522 0 10-4.477 10-10s-4.478-10-10-10h-34.733c-5.522 0-10 4.477-10 10s4.478 10 10 10h7.297v52.894c-.001 5.523 4.476 10 9.999 10z"/><path d="m120.336 163.805c0 22.854 18.593 41.447 41.447 41.447s41.446-18.593 41.446-41.447-18.593-41.447-41.446-41.447c-22.854 0-41.447 18.593-41.447 41.447zm62.894 0c0 11.826-9.621 21.447-21.446 21.447-11.826 0-21.447-9.621-21.447-21.447s9.621-21.447 21.447-21.447c11.824 0 21.446 9.622 21.446 21.447z"/><path d="m246.95 61.19c1.609 3.863 5.539 6.354 9.719 6.157 4.113-.194 7.769-3.011 9.031-6.926 1.278-3.966-.111-8.465-3.434-10.992-3.382-2.573-8.093-2.717-11.636-.379-3.944 2.601-5.46 7.796-3.68 12.14z"/></g></g></svg>